<?xml version="1.0" encoding="UTF-8"?>
<svg xmlns="http://www.w3.org/2000/svg" viewBox="0 0 386.28 213.6"><g fill="#231f20">
<path d="M226.03,88.25h0c-7.84,0-14.2,6.36-14.2,14.2v38.82h15.2v-53.03h-1Z"/>
<polygon points="177.82 141.28 165.23 141.28 139.07 72.63 154.14 72.63 177.82 141.28"/>
<path d="M192.88,72.63h15.2l-16.46,43.4c-2.86,7.55-10.1,12.55-18.17,12.55l19.43-55.94Z"/>
<path d="M227.03,88.25h22.58v-15.62h-9.6c-7.17,0-12.98,5.81-12.98,12.98v2.64Z"/>
<path d="M117.41,120.84c-3.16,6.4-8.56,9.59-16.2,9.59-5.32,0-9.8-1.66-13.45-4.98-3.66-3.32-5.56-7.73-5.98-13.21h-14.52c.57,4.89,1.94,9.31,4.12,13.27,2.95,5.36,7.02,9.51,12.21,12.46,5.19,2.95,11.07,4.53,17.63,4.53,8.06,0,14.8-2.12,20.25-6.15,5.44-4.03,9.2-9.2,11.28-15.51h-15.32Z"/>
<path d="M134.6,105.27c0-6.64-1.41-12.52-4.24-17.63-2.83-5.11-6.77-9.07-11.84-11.9-5.07-2.82-10.84-4.35-17.32-4.35s-12.68,1.57-17.88,4.47c-5.19,2.91-9.22,7.04-12.08,12.4-2.01,3.75-3.3,7.93-3.9,12.52h14.42c.66-5.31,2.74-9.53,6.23-12.65,3.49-3.11,7.68-4.67,12.58-4.67,5.4,0,9.92,1.58,13.58,4.73,3.65,3.16,5.52,7.35,5.61,12.58h-38c0,6.33,5.13,11.46,11.46,11.46h40.86c.33-2.08.5-4.4.5-6.98"/>
<path d="M315.09,85.96c-2.62-4.49-6.15-8.66-10.59-11.03-4.44-2.37-9.41-3.55-14.89-3.55-8.39,0-15.3,2.37-20.74,7.1-5.44,4.73-8.66,10.88-9.65,18.44h13.95c.75-4.15,2.51-7.39,5.29-9.72,2.78-2.33,6.29-3.49,10.53-3.49,4.65,0,8.37,2.24,11.15,5.23,2.78,2.99,4.26,6.94,4.42,11.84h2.06c7.54,0,12.31-8.16,8.54-14.7-.03-.04-.05-.08-.07-.13"/>
<path d="M304.56,112.37c0,3.99-1.06,6.62-3.18,9.4-2.12,2.78-4.78,4.86-7.97,6.23-3.2,1.37-6.41,2.06-9.66,2.06-3.65,0-6.52-.83-8.6-2.49-2.08-1.66-3.12-3.9-3.12-6.73s1.06-4.98,3.18-6.73c2.12-1.74,5.42-1.87,9.9-1.87h19.44v-11.46h-19.44c-9.22,0-16.13,1.33-20.74,5.48-4.61,4.15-6.92,9.39-6.92,15.7,0,3.9,1,7.41,2.99,10.53,1.99,3.11,4.78,5.57,8.35,7.35,3.57,1.78,7.56,2.68,11.96,2.68,5.07,0,9.78-1.08,14.14-3.24,4.36-2.16,7.58-4.82,9.66-7.97v9.97h14.45v-29.03h-14.45v.12Z"/>
</g></svg>
